<svg xmlns="http://www.w3.org/2000/svg" width="2390.56" height="2134" viewBox="0 0 2390.56 2134">
  <defs>
    <style>
      .cls-1 {
        fill-rule: evenodd;
      }
    </style>
  </defs>
  <path id="cart" class="cls-1" d="M505,133H2171c40.32,0,97.44-5.25,128,6,36.81,13.55,66.81,40.866,82,76,20.51,47.447,3.62,100.372-10,142-6.72,20.552-9.27,40.362-16,61-22.25,68.18-37.87,140.8-60,209-7.88,24.289-11.08,47.726-19,72-32.56,99.749-54.65,205.2-87,305-22.8,70.31-24.11,135.02-80,174-36.04,25.14-83.51,23-145,23H712v2c2.761,4.37,1.472,10.09,3,16,3.851,14.9,4.875,31,9,47,6.025,23.36,7.469,48.63,14,73,5.025,18.75,10.293,40.75,12,61H1982c25.46,0,58.32-3.67,79,3,25.18,8.12,42.67,21.95,56,42,11.47,17.26,23.49,48.53,15,79-9.93,35.64-33.64,61.88-68,73-24.25,7.85-62.58,4-93,4H740c-36.02,0-84.266,5.22-111-6-27.779-11.65-49.313-35.24-59-65-7.942-24.4-7.474-50.52-14-76-13.007-50.78-18.075-106.19-31-157-4.193-16.48-3.763-31.53-8-48-6.942-26.99-8.768-55.89-16-84-5.173-20.1-6.538-41.78-12-63-20.153-78.32-27.05-162.624-47-241-7.161-28.134-9.125-56.989-16-84-2.466-9.687-1.509-17.321-4-27-18.381-71.435-24.805-148.489-43-220-4.194-16.484-3.769-31.527-8-48-9.932-38.667-14.17-81.306-24-120-2.462-9.69-1.52-17.316-4-27-5.151-20.112-6.568-41.764-12-63a636.048,636.048,0,0,1-14-71H155c-27.977,0-61.815,3.195-84-4-23.925-7.76-41.272-21.878-54-41C6.355,140.008-7,110.3,1,80,4.591,66.4,9.751,52.373,17,42,31.049,21.9,52.9,8.082,80,1c13.118-3.428,32.1-1,47-1H361c23.918,0,52.813-2.634,71,4C482.92,22.573,503.373,65.517,505,133Zm36,177c0.127,7.4,2.443,13.985,4,20,3.723,14.384,4.406,28.7,8,42,8.332,30.83,10.3,63.086,18,93,5.513,21.416,5.463,41.616,11,63,17.829,68.864,24.3,143.125,42,212,5.077,19.76,4.9,38.246,10,58,8.532,33.056,12.5,69.9,21,103,3.333,12.984,2.668,24.015,6,37,4.237,16.513,5.482,34.349,10,52,2.448,9.564,5.583,19.73,6,31,442.98-.02,885.59,1.8,1327,2,0.32-6.74,3.24-12.69,5-18,4.37-13.188,6.98-26.714,11-39,12.43-37.938,19.94-77.033,32-114,6.41-19.659,8.57-38.347,15-58,22.72-69.44,38.37-143.519,61-213,7.16-21.984,9.83-43.04,17-65,14.76-45.214,23.98-92.788,39-139,6.76-20.806,15.88-44.393,19-67H541ZM724,1733c102.321-1.33,165.118,54.56,195,126,18.621,44.51,19.459,107.99,0,153-22.119,51.16-61.879,88.79-114,110-15.868,6.46-33.591,8.02-52,12H734c-30.392,0-53.045-5.22-74-14-59.294-24.84-97.444-64.4-118-128-7.272-22.5-14.2-61.43-7-91,3.579-14.69,6.459-29.79,12-43,21.756-51.86,61.715-90.63,114-112,12.923-5.28,27.756-7.69,42-11C709.335,1733.53,719.013,1736.1,724,1733Zm1201,0c103.08-1.34,164.8,55.96,195,128,15.49,36.96,19.38,100.82,3,141-23.1,56.64-61.37,96.96-118,120-15.86,6.45-33.55,8.01-52,12h-19c-30.33,0-53.06-5.23-74-14-59.32-24.85-94.42-63.23-117-125-7.01-19.17-15.16-58.42-9-86,2.99-13.37,4.12-27.79,9-40,22.91-57.33,59.61-98.31,116-122,13.38-5.62,28.95-8.5,44-12C1909.5,1733.49,1919.84,1736.2,1925,1733Z"/>
</svg>
