<svg xmlns="http://www.w3.org/2000/svg" width="1514.465" height="1513.815" viewBox="0 0 1514.465 1513.815">
  <defs>
    <style>
      .cls-1 {
        fill-rule: evenodd;
      }
    </style>
  </defs>
  <path id="search" class="cls-1" d="M799,160c122.722-2.273,222.03,25.363,301,68,18.82,10.163,36.56,17.551,54,29,22.95,15.067,44.03,33.623,66,50q4.995,5.5,10,11a234.738,234.738,0,0,1,45,45l12,11c7.87,10.417,17.53,19.726,25,30,13.36,18.366,23.8,37.369,36,57,10.56,17,22.7,36.128,31,55,7.5,17.06,12.32,33.026,19,51,8.36,22.51,14.95,48.553,22,73,4.84,16.768,5.16,34.641,9,51,2.77,11.817,1.6,23.558,4,34v18c2.6,12.161,3.75,32.654,1,45v27c-2.75,12.22-2.3,27.433-5,39v11c-3.21,13.208-3.07,28.929-7,43-20.16,72.16-39.2,131.24-74,188-10.44,17.03-22.13,33.96-34,50-6.76,9.14-19.01,17.71-23,29q54.495,54.99,109,110c80.83,80.83,161.16,162.17,242,243q23.505,24,47,48c8.85,8.85,20.77,17.84,27,29,10.8,19.35,3.25,46.05-11,57-12.76,9.81-34.21,16.72-53,7-10.26-5.31-16.89-14.58-25-22-22.18-20.3-42.78-41.78-64-63-79.16-79.17-159.83-156.83-239-236-25.21-25.21-49.73-50.83-76-75-7.79-7.17-21.2-25.79-30-30-5.53,7.48-15.47,12.42-23,18-16.26,12.04-32.55,26.11-50,37-6.01,3.75-11.96,5.3-18,9-49.86,30.59-107.76,49.65-171,68-16.228,4.71-33.418,5.25-49,9q-14.5,1.005-29,2c-30.159,6.71-89.987,7.04-120,0q-13-1.005-26-2c-28.587-6.79-57.771-9.62-85-18-167.829-51.65-279.719-154.91-363-291-3.921-6.41-5.529-13.32-9-20-10.246-19.72-20.264-41.8-29-63-4.253-10.318-5.041-20.427-9-31-10.844-28.959-15.309-63.384-23-96-3.544-15.031-1.831-29.974-5-44V806c-3.73-17.452-2.777-56.311,1-73V718c3.708-16.193,2.639-34.414,7-51,12.149-46.208,19.55-90.734,37-131,69.15-159.562,182.451-265.57,342-335,39.435-17.161,84.817-22.582,130-34,17.8-4.5,36.548-2.1,54-6C785.928,159.675,794.654,162.725,799,160Zm19,95-54,4c-41.517,9.941-82.107,12.188-118,27-20.18,8.328-45.677,16.28-64,27C476.166,374.915,391.164,455.693,342,574c-14.313,34.441-20.575,72.174-31,111q-1.5,15.5-3,31c-12.066,51.4-3.057,128.434,9,173,9.021,33.345,14.289,62.917,27,92,43.814,100.25,114.7,180.15,203,236,17.672,11.18,35.5,18.28,55,28,30.25,15.08,65.344,25.95,101,36,17.17,4.84,34.951,4.95,52,9h10c12.176,2.86,53.9,8.42,69,5,12.674-2.87,27.726.16,41-3,37.314-8.88,74.211-10.73,108-22,153.7-51.28,247.71-148.13,316-285,4.68-9.381,5.92-19.092,10-29,42.99-104.48,41.78-262.138-1-366-8.03-19.488-12.67-37.109-22-55C1206.54,382.6,1047.9,256.572,818,255Z" transform="translate(-206.625 -159.875)"/>
</svg>
