<svg xmlns="http://www.w3.org/2000/svg" width="6294" height="6297" viewBox="0 0 6294 6297">
  <defs>
    <style>
      .cls-1 {
        fill: #cecece;
        fill-rule: evenodd;
      }
    </style>
  </defs>
  <path class="cls-1" d="M980,1575v-8c-10.512-4-21.542-21-28-30-15.15-21.12-30.018-46.05-41-71-5.381-12.22-9.129-24.66-16-36-17.229-28.44-28.484-60.35-42-93-16.425-39.67-28.544-83.79-41-128-5.834-20.71-7.775-42.49-13-63l-9-66q-0.5-12-1-24c-2.523-11.82.836-26.51-2-40-2.968-14.11-1.976-51.437,1-65q1-18,2-36c2.662-11.714,1.941-24.784,5-37,4.875-19.467,8.308-40.042,13-59l7-71c17.718-68.606,46.767-128.458,73-188,74.36-168.777,196.77-303.711,346-398,45.32-28.633,95.97-52.891,147-75,20.87-9.043,41.55-14.189,63-23,52.63-21.614,112.07-32.678,172-48,20.35-5.2,41.9-5.318,62-10l17-1c24.51-5.409,53.03-4.994,82-5h37c18.11,4.029,38.57,4.135,55,8h59c97.75,24.732,199.87,43.882,287,80,51.95,21.534,100.98,45.575,146,74,28.98,18.3,54.17,41.864,81,62,23.15,17.368,42.77,37.763,63,58,16.19,16.2,33.06,31.536,47,50,5.64,7.465,14.35,13.494,20,21,15.7,20.854,33.62,40.08,49,61,47.21,64.224,92.9,130.879,136,199,28.14,44.479,53.91,89.43,82,134,67.32,106.794,135.55,214.277,203,321,24.82,39.27,45.26,83.09,70,123,10.9,17.58,20.23,40.54,39,50,1.73-17.12,12.44-31.92,20-44,17.72-28.33,38.27-52.37,57-79,16.51-23.47,29.61-48.63,45-73,35.5-56.22,72.44-112.814,108-169,55.11-87.072,108.05-176.04,163-263,22.29-35.268,42.23-71.078,66-105,23.26-33.195,48.24-65.683,72-98,18.51-25.173,39.37-47.341,58-72,6.37-8.434,16.66-14.61,23-23a212.722,212.722,0,0,1,40-40c10.82-8.173,19.11-20.776,30-29,41.66-31.476,81.84-64.506,127-93,92.92-58.636,200.62-98.923,319-132l73-12,19-1c15.73-3.459,35.67-1.372,52-5h24c14.02-2.985,61.04-3.071,75,0h20l46,3c18.33,4.133,38.38,2.456,57,7,24.09,5.878,49.29,9.891,72,16,45.92,12.353,98.02,11.139,139,28,73.48,30.233,144.09,64.652,208,105,28.75,18.153,55.19,40.117,82,60,27.75,20.577,63.41,49.753,84,77q7.005,6.5,14,13c13.41,17.716,29.89,33.174,43,51,19.57,26.611,39.24,53.9,57,82,14.36,22.723,26.06,47.119,40,70,4.68,7.681,6.84,16,11,24,13.83,26.6,25.49,54.3,38,83,23.45,53.762,37.77,114.588,55,176,7.65,27.247,7.38,55.231,14,84,10.02,43.5,9.99,113.631,0,156v71c-24.1,95.59-39.56,198.14-76,281-19.32,43.93-46.98,89.4-72,129-12.89,20.4-28.72,31.63-40,56h414c13.52,11.99,41.56,1.43,61,6,42.72,10.05,88.11,18.9,125,35,141.61,61.78,236.02,151.71,313,278,11.97,19.63,17.84,41.27,27,64,8.08,20.04,12.99,43.62,19,66,2.51,9.34,1.6,17.32,4,27,4.42,17.83,4.8,39.33,9,58q0.495,10.5,1,21c2.77,12.59,1.15,29.13,4,42v19c3.11,14.3,2,31.99,2,48v17c1.95,8.95,1,22.37,1,33v63q-0.495,105.99-1,212c4.03,18.58,1,44.48,1,65v131c0.02,194.08-15.28,378.33-89,499-34.95,57.22-78.04,100.8-131,140-30.34,22.46-57.18,49.57-90,70a279.9,279.9,0,0,1-50,24q-15.495,4.005-31,8c-3.17,5.14-1,30.66-1,39V5466c-2.68,4.54-.98,16.51-1,23q-1.5,22.005-3,44c-3.49,15.17-5,29.63-5,49v34c-8.3,32.67-16.34,66.08-27,98-25.13,75.25-52.62,148.42-91,211-19.34,31.53-41.16,61.08-63,90q-7.005,6.495-14,13c-18.41,18.4-37.81,34.22-59,50-19.22,14.31-32.79,41.67-52,56-26.26,19.59-55.52,35.66-84,53-19.65,11.97-41.36,19.55-63,29-58.23,25.43-122.59,44.19-187,65-15.09,4.88-32.27,5.38-48,9q-10.005.495-20,1c-24.84,5.44-56.41,3-85,3-63.91,0-126.52-2-192-2H1371c-59.27,0-112.95,4.99-173,5-28.16.01-62.28,1.7-86-4-93.78-22.54-178.112-43.13-258-78-22.418-9.79-44.653-17.64-65-30-30.011-18.24-59.776-36.1-88-56-18.313-12.91-34.109-29.48-52-43l-20-21c-21.867-21.87-42.432-43.69-61-69-14.414-19.65-30.745-39.05-44-60-38.745-61.23-70.187-130.25-95-205-8.092-24.38-13.251-49.73-20-75-4.239-15.87-4.381-32.47-8-48q-3.5-35.49-7-71c-2.718-12.28.484-25.76-2-37v-31c-4.618-21.29-1-50.7-1-74,0-17.09-2.363-38.77,1-54q0.5-42.495,1-85c2.4-10.99-1.666-26.77,1-39,2.742-12.58-2.01-30.17,1-44,1.948-8.95,1-22.37,1-33V3670c0-56.68,6.113-118.58-4-169-16.278-5.24-31.535-7.63-46-14-43.862-19.31-76.853-51.18-113-78-66.081-49.04-127.921-104.29-163-184-14.47-32.88-25.233-67.64-37-104-5.732-17.71-7.466-37.29-12-55-7.18-28.04-5.566-58.45-12-87-2.595-11.51-.668-23.53-3-34q-1-24-2-48c-4.541-20.74-3-47.4-3-70v-25c-1.888-8.64-1-21.68-1-32V2285c-0.005-43.59-3.6-94.89,5-131q0.5-10.995,1-22c4.082-18.06,1.948-39.93,6-58,1.818-8.11-.267-14.96,2-22,24.32-75.57,49.573-146.04,88-207,83.753-132.86,220.045-218.74,393-262h50c15.7-3.72,35.027-5.16,52-9,11.932-2.7,24.869-.52,36-3q26.5-.495,53-1c24.272-5.28,60.892-.01,86,0Q875.989,1572.505,980,1575Zm1904,0v-8c-14.09-8.84-20.11-25.82-28-41-9.37-18.03-19.32-35.06-30-52-51.4-81.5-102.46-163.38-154-245-84.69-134.11-173.07-266.8-258-401-80.21-126.74-155.25-256.919-282-337-52.66-33.268-113.01-51.964-181-71-23.47-6.57-48.86-6.388-73-12l-18-1c-15.73-3.438-35.68-1.345-52-5h-25c-6.53-1.371-33.47-3.435-41-1-2.71.877-6.93,3.993-10,5l-36,7-24,2c-23.67,5.542-50.34,4.782-72,12-72.54,24.172-137.05,59.916-194,100-17.27,12.156-44.74,29.8-57,46-9.99,13.2-22.23,24.717-32,38-13.56,18.443-25.97,38.281-38,58-30.13,49.372-48.72,109.523-68,169q-6.495,28.5-13,57c-3.04,11.864-1.25,22.488-4,35-6.37,29.012-6.66,90.06,0,119,5.16,22.41,4.09,43.25,10,64,18.21,63.96,38.96,122.27,70,173,11.99,19.59,22.08,38.62,35,57,68.4,97.31,166.15,162.71,291,204,21,6.94,44.08,9.4,66,15q10.005,1.005,20,2c24.72,5.84,54.76,3.17,81,9q21,0.495,42,1c10.06,2.2,24.3.35,36,1,14.62,0.81,32.79,1,49,1q83.985-.495,168-1h822ZM4450,401c-8.63,9.952-26.42,6.507-42,10-11.84,2.654-26.02-.912-39,2-18.16,4.075-33.8,5.606-50,11-55.39,18.443-111.79,36.671-158,65-27.78,17.031-51.65,37.839-77,57l-18,19a600.273,600.273,0,0,0-64,75c-57.48,79.986-108.64,166.339-162,251-98.59,156.42-195.29,314.39-294,471-14.87,23.58-31.13,47.45-46,71-10.77,17.06-19.5,34.6-31,51-20.8,29.68-43.89,54.86-59,91H4538c11.16-9.55,31.31-7.9,48-12,41-10.06,89.56-8.45,126-22,115.88-43.09,215.36-106.8,281-200,37.4-53.1,67.62-115.57,90-183,14.82-44.65,20.99-95.88,21-154,0-17.591,1.35-37.092-2-52q-0.495-10.5-1-21c-5.12-22.168-4.89-45.484-11-67-10.73-37.8-21.68-73.489-36-106C4953.46,529.692,4778.05,401.92,4450,401ZM2946,3146V1972H752c-76.621,0-166.389-3.98-225,15-30.3,9.81-55.325,22.91-78,40-51.56,38.86-52,157.18-52,250v483c0,24.16,2.513,56.96-2,78v27c-2.906,13.73-2.965,58.3,0,72v15q3,20.505,6,41c16.1,58.03,49.306,110.65,101,133,51.632,22.32,130,20,203,20H2946Zm401-1174V3146H5554c16.2,0,36.63,2.11,51-1q39.99-.495,80-1l54-6c38.68-9.74,69.8-19.81,97-40,60.42-44.85,60-152.59,60-258V2359q1.005-51,2-102c3.03-14.32,3.09-61.72,0-76v-16q-2.505-19.005-5-38c-14.93-56.68-47.93-112.35-97-134-52.7-23.25-129.46-21-206-21H3347ZM793,3542V5576c14.871,58.25,32.4,117.63,63,161,7.547,10.7,22.43,15.56,30,26,6.849,9.45,8.894,22.88,17,31,11.681,11.7,28.013,19.7,42,29,47.082,31.3,103.64,56.26,166,72H2946V3542H793Zm2554,0V5895H4738c78.85,0,155.29,1.99,233,2,23.1,0,59.77,3.51,80-1,9.99-2.23,23.24.95,32-1q24.99-1.005,50-2c9.56-2.16,20.62-.6,31-3,29.71-6.88,60.49-7.06,88-16,48.12-15.64,83.19-31.99,119-59,17.03-12.84,32.47-36.16,45-54,36.45-51.91,67.27-111.32,85-182V5158c0-538.02.43-1081.3,0-1616H3347Z"/>
</svg>
