<svg xmlns="http://www.w3.org/2000/svg" width="711.7" height="632.8" viewBox="0 0 7117 6328">
  <defs>
    <style>
      .cls-1 {
        fill: #cecece;
        fill-rule: evenodd;
      }
    </style>
  </defs>
  <path class="cls-1" d="M3306,0c350.57-3.517,598.1,88.923,810,223,158.46,100.264,289.61,229.605,393,385,59.31,89.14,113.21,169.938,150,283,14.05,43.164,22.91,110.72,7,159-9.37,28.42-24.87,49.66-41,71-6.94,9.18-18.55,16.23-28,23-36.75,26.34-104.3,54-169,36-41.16-11.45-75.98-32.41-98-63-24.22-33.64-36.29-76.34-54-117-21.42-49.164-46.37-97.166-74-141-65.67-104.193-154.32-199.795-254-270-25.21-17.758-51.19-32.566-78-49-25.21-15.453-53.21-31.77-81-44-37.56-16.528-74.79-30.093-115-45-31.93-11.839-67.18-20.294-102-30l-69-12-76-7h-23c-21.69-4.57-51.32-1-75-1h-36c-67.3,16.843-146.91,21.21-213,40-16.15,4.592-31.16,5.917-46,12-81.08,33.228-157.67,69.811-225,117-22.81,15.982-44.7,33.348-67,50-6.02,4.5-11.02,11.489-17,16-21.06,15.878-40.5,34.516-58,54l-24,23c-18.92,25.015-42.38,46.677-61,72-33.51,45.57-63.89,92.544-94,142-9.12,14.985-14.78,31.582-22,48-13.51,30.74-26.82,63.85-40,96-9.74,23.77-15.04,49.39-23,74-6.32,19.53-7.34,38.99-13,59-12.93,45.71-25.34,87.65-50,121-16.99,22.97-46.09,40.18-76,50-7.22,2.37-13.17,1.96-21,4-11.75,3.06-33.83,6.85-47,4h-19q-13.5-1.995-27-4c-42.87-11.92-67.27-23.76-98-47-6.52-4.93-11.18-13.27-16-20-57.32-79.97-34.19-221.03-4-313,6.98-21.255,12.05-41.643,20-61,9.38-22.848,16.65-45.576,26-67,45.1-103.384,94.85-198.738,156-286,17.33-24.731,36.1-48.619,54-73,3.62-4.925,9.36-9.132,13-14,13.08-17.5,27.92-32.691,41-50,6.92-9.159,18.09-15.866,25-25,7.72-10.2,17.07-18.073,26-27,11.35-11.343,22.07-23.232,35-33,9.33-7.051,16.63-17.92,26-25,27.17-20.523,52.13-44.323,80-64,100.27-70.793,208.95-130.009,329-182,86.02-37.251,198.65-55.236,298-78l26-1c25.57-5.641,57.56,1.466,82-4C3282.95,5.88,3297.49,8.134,3306,0ZM791,3563h-4v-4c-29.57.65-64.866-1.96-90-8q-10-1.005-20-2c-24.436-6.18-50.356-8.28-74-16-24.979-8.16-50.963-14.06-75-24-17.891-7.4-36.787-16.41-54-24-184.69-81.46-333.387-238.13-414-424-14.635-33.74-20.559-70.27-32-108-7.855-25.9-14.434-54.89-21-81v-55c-10.142-43.46-11.76-116.02-1-161,3.118-13.04,1.734-24.43,5-37,4.542-17.48,6.295-36.51,12-54,9.3-28.5,17.684-57.96,27-86,7.973-24,11.689-47.54,21-70,20.153-48.61,46.463-91.49,75-132,10.55-14.98,24.11-28.49,35-43,31.349-41.77,73.12-82.74,115-114,13.783-10.29,26.783-22.98,41-33,68.193-48.04,146.771-89.96,239-113,32.3-8.07,68.368,2.56,90,12,61.2,26.71,97.5,79.53,119,146,14.061,43.48,7.046,107.77-12,139-31.855,52.24-88.794,72-141,104-70.548,43.25-141.951,92.23-186,162-20.228,32.04-33.152,73.34-46,112-23.493,70.7-18.081,164.83,8,228,6.32,15.31,9.771,30.42,18,44,13.8,22.78,26.719,45.75,42,67,6.357,8.84,15.506,16.39,22,25,44.476,58.94,120.7,110.63,199,136,38,12.31,90.269,12.88,139,13v-2q3.5-18.495,7-37c9.728-29.77,17.877-58.75,28-89,33.955-101.46,62.778-205.59,104-300a1279.2,1279.2,0,0,1,81-155c10.45-17.08,13.63-39.02,24-56,27.56-45.14,58.77-88.09,89-131,31.07-44.1,68.7-83.17,101-126,13.12-17.39,30.74-31.45,44-49q6.495-6,13-12c8.77-8.96,17.14-18.14,26-27,15.71-15.7,30.16-33.52,48-47,10.12-7.65,18.37-18.97,29-27q4.5-4.995,9-10c36.83-27.86,69.39-60.4,107-88,31.34-22.99,61.91-48.45,94-71,48.09-33.79,98.83-63.37,149-95,45.79-28.86,93.48-59.33,145-82,141.77-62.38,305.23-105.13,468-146q47.49-4.005,95-8c19.18-4.92,41.81-8.15,62-13,12.46-2.99,25.36-2.33,37-5,15.82-3.63,32.87-1.66,48-5,19.39-4.28,40.39.08,59-4h22c15.51-3.36,34.73-2,52-2h18c21-4.54,50-1,73-1,17.1,0,38.75-2.34,54,1q55.995,0.495,112,1c14.71,2.2,35.17-2.43,51,1,14.7,3.19,35.47.92,52,1,26.35,0.12,56.08,1,84,1H4649c10.4-25.42,30.48-46.51,51-62,12.73-9.61,24-22.45,37-32,27.23-20,54.79-39.03,82-59,15.24-11.19,28.8-25.81,44-37,26.34-19.4,52.53-38.56,81-56,18.89-11.57,39.1-19.79,60-29,87.5-38.53,185.57-68.13,285-96q22.5-3.495,45-7h11c15.66-3.48,33.98-.24,51-4,21.44-4.74,45.51-5.38,65-10h67c39.92-8.91,88.97-7.99,136-8,20.48,0,46.47-3.09,65,1h22c17.53,3.9,37.36,1.29,54,6a419.047,419.047,0,0,1,141,70c19.64,14.81,33.57,45.37,47,67,16.94,27.29,29.98,52.62,41,87,18.89,58.9,6.83,151.86-9,204-4.63,15.25-6.04,29.12-11,44-9.49,28.5-18.5,57.92-27,88-9.46,33.51-11.03,68.43-21,101-12.29,40.15-27.09,72.71-33,120,19.06,6.11,30.36,26.92,45,38,13.46,10.19,22.79,25.01,36,35,15.23,11.52,27.78,25.5,43,37,9.15,6.91,15.86,18.09,25,25,14.36,10.85,27.34,24.34,40,37q6,6.495,12,13a126.53,126.53,0,0,1,25,25c8.86,11.72,21.95,20.02,31,32,7.75,10.25,20.23,17.72,28,28,23.34,30.85,52.83,57.03,76,88,23.48,31.39,48.42,61.86,71,94,27.96,39.8,53.36,82.27,79,124,18.21,29.64,31.79,61.02,50,91,10.74,17.68,22.77,37.64,31,57,12.28,28.88,15.87,54.01,36,75h137c23.99,0,54.88-2.27,74,3q16.005,0.495,32,1c28.91,7.57,60.93,13.64,87,25,76.02,33.12,143.38,106.61,185,175,5.49,9.02,7.71,18.8,12,29,30.46,72.45,29,174.98,29,278v948c0.01,110.76-.2,221.27-34,299-40.33,92.76-137.23,175.17-238,208-18.33,5.97-42.26,1.44-63,6q-16.005.495-32,1c-48.31,10.94-107.95,8-167,8H6320c-5.06,18.82-23.47,31.11-34,45-8.22,10.85-19.97,18.4-28,29-14.46,19.08-31.71,36.73-46,56-47.61,64.2-108.1,117-172,165q-4.005,4.5-8,9c-8.58,8.58-18.69,17.32-26,27-5.88,7.79-13.27,17.19-21,23-72.33,54.41-145.56,106.14-224,155-28.42,17.7-58.12,31.44-87,49-15.6,9.49-33.08,20.57-50,28-27.1,11.9-69.77,20.18-85,43-15.38,23.05-6,72-6,105v290c-21.14,83.83-39.26,166.73-71,239-52.08,118.6-144.33,200.9-263,253-55.58,24.4-116.32,41.7-180,58-16,4.09-33.66,2.38-50,6h-20c-14.77,3.2-53.25,3.25-68,0-11.9-2.63-27.33,1.35-38-1H4723c-17.33-3.82-41.75-1-61-1h-18c-18.05-4-41.27.9-59-3h-19c-13.03-2.9-28.11.12-42-3-9.43-2.12-20.64-.62-31-3q-36.99-5.505-74-11c-68.83-17.81-132.6-33.38-186-66-127.58-77.94-204.74-196.45-256-351-9.54-28.77-14.68-58.08-22-89q-1.005-13.005-2-26c-4.39-19.94-3-44.68-3-68-0.01-57.64,2.97-109.97,3-167h-2c-11.02-8.39-38.16-4.39-55-8-12.88-2.76-31.34-1-46-1q-54.495,1.995-109,4c-189.35,1.47-382.99.98-574,1a2.9,2.9,0,0,1-1,1q-3,13.995-6,28c-4.14,18.15-2,45.94-2,67,0,10.61-.98,24.07,1,33v24c3.67,17.36,2.99,39.26,3,58,0,6.45,2.3,17.3,1,22-1.17,4.23-5.45,10.25-7,15-5.08,15.57-5.23,33.78-9,50-7.15,30.73-4.1,64.44-15,91-19.23,46.87-38.5,91.55-64,132-20.22,32.08-45.63,59.4-68,89q-5.505,4.995-11,10c-11.31,11.31-22.02,22.26-35,32-16.99,12.75-33.61,27.39-52,39-49.66,31.36-106.77,53.08-170,71-29.82,8.45-61.73,9.81-93,17-14.91,3.43-30.8,1.84-45,5q-19.5,1.005-39,2c-10.78,2.35-23.83-.64-36,2-18.76,4.07-52.28,2.99-73,3h-61c-20.96,4.51-53.65,1-77,1h-21c-9.41,2-23.33-1.25-34,1-10.49,2.21-25.8,1-38,1-39.27.01-85.84,2.29-118-6-121.63-31.35-211.65-71.31-299-136-23.49-17.4-53.38-46.65-71-70-7.05-9.34-17-17.48-24-27-34.12-46.41-64.88-94.25-85-155-39.37-118.89-36-282.96-36-440V5255c0-29.15,7.57-81.15-1-104-17.92-47.76-73.81-66.98-112-95-13.26-9.73-24.77-22.01-38-32q-6.495-7.005-13-14a172.485,172.485,0,0,1-33-33q-9-8.505-18-17c-19.27-25.48-43.68-46.43-63-72-13.32-17.63-37.72-26.35-51-44C1003.44,4512.23,792.719,4142.89,791,3563ZM2766,5137H4350v498c-0.01,95.91,3.72,200.27,58,241,82.89,62.2,241.18,48.99,384,49,90.62,0,197.42,10.24,255-26,88.62-55.77,89-173.36,89-317V5112c6.6-.68,12.88-3.89,18-6,9.45-3.89,17.9-5.04,27-9,12.21-5.32,25.07-12.73,37-18,59.55-26.33,113.18-59.36,170-89,72.3-37.72,150.85-65.66,218-108,38.06-23.99,69.6-55.38,105-82,10.14-7.63,18.82-18.38,29-26,29.35-21.95,59.74-42.94,89-65,15.27-11.51,26.61-29.48,38-45,10.13-13.81,22.55-26.11,33-40,7.49-9.96,18.49-18.07,26-28,30.19-39.93,68.32-73.66,98-114,17.19-23.37,34.29-47.2,51-71,15.81-22.53,29.53-45.34,48-65h593V3163H6299c-32.57-60.64-63.6-123.61-92-188-10.18-23.08-24.87-45.97-35-69-14.04-31.93-21.41-69.09-39-98-44.73-73.53-88.93-148.4-138-218-10.7-15.17-25.96-27.41-37-42-17.58-23.24-38.24-43.48-56-67-2.04-2.71-5.23-3.91-8-6-11.43-8.62-22.24-19.54-34-28-4.15-2.99-8.97-5-12-9-34.53-45.61-80.04-81.69-126-116-37.73-28.16-72.24-61.71-111-89-33.63-23.68-68.63-44.6-101-69-6.93-5.22-18.01-16.85-23-24-2.05-2.94-2.63-6.47-5-9,1.74-7.21,7.21-13.44,10-20q4.995-16.995,10-34,7.5-45.99,15-92c11.1-40.87,20.26-82.46,32-124,9.04-32.01,11.49-63.83,21-95,9.98-32.72,17.26-65.19,28-98,8.06-24.63,16.63-53.09,17-84-230.64-3.39-391.47,54.55-530,142-39.47,24.92-76.25,54.24-113,82-9.02,6.81-23,22.73-30,32-5.91,7.83-15.06,14.11-21,22-15.24,20.25-32.47,39.35-47,60-9.74,13.84-18.66,28.31-28,42-3.08,4.51-7.04,13.77-12,16H2712c-16.06,14.51-68.64,6-96,6h-18c-33.45,7.63-69.51,12.48-104,21-24.23,5.99-49.95,6.14-73,12q-9,1.005-18,2c-25.35,6.54-52.32,8.96-77,17-49.03,15.98-98.55,29.74-145,49-102.52,42.52-198.42,89.07-287,145-35.31,22.3-66.96,49.33-100,74-14.35,10.72-26.71,25.24-41,36-23.69,17.84-45.2,38.53-69,56-14.31,10.5-36.65,26.31-47,40-15.2,20.1-34.92,36.83-50,57-36.55,48.89-73.71,97.77-109,148-75.86,107.96-134.38,229.51-190,358-20.68,47.77-35.07,95.2-49,150q-8.505,60.495-17,121c-9.31,37.55-13.83,75.76-23,114-4.41,18.4-3.01,38.08-7,56-2.75,12.37-.48,25.53-3,37v17c-2.76,13.02-3.84,49.9-1,63q0.495,21,1,42c2.04,9.23.71,20.06,3,30,3.06,13.29,5.06,28.45,8,41v59c2.8,11.24,4.26,25.71,7,38q0.495,10.005,1,20c5.02,22.22,3,46.79,9,68,31.4,111.09,61.06,224.66,103,326,8.09,19.55,13.65,37.97,22,57,6.21,14.16,14.86,29.05,21,43,5.34,12.13,9.27,23.91,16,35,10.21,16.81,18.48,35.07,29,52,22.61,36.39,46.49,72.21,71,107,26.73,37.95,59.25,71.28,87,108,7.22,9.55,18.81,16.49,26,26a143.657,143.657,0,0,0,28,28q7.5,7.995,15,16c12.95,9.79,24.05,21.22,37,31l58,61c33.72,25.51,65.82,53.7,100,79,9.68,7.17,18.33,16.83,28,24,26.46,19.63,51.55,40.29,80,58,8.56,5.33,37.6,20.44,41,28v806c7.94,8.78,5.87,41.41,11,54,17,41.71,40.69,80.58,77,103,48.77,30.12,135.11,26,213,26,153.24,0.01,376.09,29.3,443-66,43.06-61.32,43-164.38,43-269V5137ZM5228,2962c45.19,0.68,86.33,12.78,119,27,82.98,36.12,135.3,85.48,170,170,15.56,37.89,26.79,107.13,13,158-7.61,28.06-14.2,54.38-25,79-44.81,102.14-140.25,136.72-259,165-13.41,3.19-33.24-.39-43-3-35.17-9.42-60.27-17.89-90-31-81.01-35.71-132.24-99.63-161-188-13.16-40.42-16.75-105.3-4-150,6.92-24.26,13.81-50.92,26-71,35.17-57.9,79.67-103.43,145-131C5146.47,2975.41,5209.44,2979.76,5228,2962Z"/>
</svg>
