<svg xmlns="http://www.w3.org/2000/svg" width="681.9" height="682.6" viewBox="0 0 6819 6826">
  <defs>
    <style>
      .cls-1 {
        fill: #cecece;
        fill-rule: evenodd;
      }
    </style>
  </defs>
  <path class="cls-1" d="M4668,6383c7.98-.74,14.58-5.09,22-7,6.27-1.61,14.32-.76,20-2,8.62-1.88,23.94-.53,31,1h19c14.45,3.12,32.49.85,47,4h890c22.74,0,54.63,3.42,75-1h36c10.92-2.41,24.19.62,36-2,27.76-6.16,56.93-3.69,83-11,70.27-19.7,129.32-44.49,184-79,22.49-14.19,42.2-32.4,63-48,22.65-16.99,45.96-37.44,63-60q4.995-4.5,10-9c10.71-14.17,23.57-26.81,34-41,39.2-53.31,72.85-106.78,96-177,8.12-24.64,11.47-51.19,18-77,2.78-11,1.34-20.7,4-32,5.19-22.05,3.93-48.87,9-72,2.07-9.43.17-19.62,2-28q0.495-19.005,1-38c3.35-15.52,2-34.73,2-52v-18c4.69-21.78,1-55.78,1-80q-0.495-83.985-1-168V3606c3.59-16.82,1-40.31,1-59,0-45.64-.47-89.43-9-126v-96c-4.57-19.34-4.35-43.74-9-65q-0.495-12.495-1-25c-1.83-8.27-.89-18.08-3-27l-9-45c-1.6-7.04-.66-14.86-2-21v-22c-5.96-26.95,2.15-59.19-4-85q-8.505-38.49-17-77c-4.15-16.36-4.28-33.52-8-49-7.17-29.85-6.99-58.8-15-87-33.09-116.44-64.37-236.64-102-350-24.39-73.47-45.46-144.96-75-213-33.86-78-71.21-154.79-114-225-7.03-11.53-10.99-23.49-18-35-27.19-44.64-52.15-90.75-80-135-17.95-28.52-38.1-56.71-56-85-51.91-82.04-110.44-156.96-167-234-20.52-27.95-45.11-53.12-66-81-4.8-6.41-12.19-11.63-17-18-24.6-32.64-55.49-59.57-80-92-8.33-11.02-21.69-19-30-30-8.21-10.86-19.99-18.4-28-29a252.627,252.627,0,0,0-47-47q-7.005-7.5-14-15-10.5-9.495-21-19-4.5-4.995-9-10c-31.84-24.08-57.92-54.85-90-79-6.75-5.08-12.25-12.92-19-18-34.83-26.23-66.89-56.19-102-82-68.5-50.359-138.12-100.015-211-146-39.38-24.85-82.97-43.619-123-68-15.3-9.319-32.69-13.7-48-23-20.21-12.277-43.39-20.476-64-33-91.07-55.328-196.81-91.274-301-134-38.26-15.691-77.83-24.447-117-39-68.3-25.379-138.66-46.663-211-67-36.53-10.269-74.41-11.343-112-21-44.18-11.349-86.09-19.252-131-30-17.54-4.2-34.69-.947-53-5-14.29-3.162-30.51-.58-46-4-11.82-2.61-25.23-1.089-38-4-14.88-3.392-32.14-5.6-46-9H3583c-33.53-7.812-72.01-11-113-11h-45l-38,4c-15.19,3.629-33.33,6.754-52,7-18.34.242-37.56-2-57-2h-18c-15.21,3.389-31.25,6.919-49,7l-94-1c-26.04,5.784-51.37,8.086-77,14-13.76,3.175-28.1,2.126-41,5h-10c-21.35,4.835-45.19,2.7-67,8-65.23,15.849-128.82,26.238-192,44-21.05,5.918-41.04,7.04-62,13-50.6,14.392-103.85,25.048-152,41-16.09,5.332-31.61,7.671-47,14-65.42,26.9-131.24,50-195,78-37.55,16.492-75.04,36.729-112,53-18.64,8.206-35.64,16.946-53,26-7.99,4.168-16.31,6.328-24,11-29.91,18.174-62.89,31.664-93,50-58.11,35.388-116.92,68.96-174,105-62.78,39.643-122.61,84.435-182,128-29.38,21.55-56.69,46.12-86,68-28.29,21.13-52.71,47.64-81,69-9.73,7.35-17.3,18.66-27,26-32.73,24.75-61.16,56.15-90,85-19.26,19.26-41.49,37.16-58,59q-7.5,7.005-15,14a345.116,345.116,0,0,0-30,34q-4.995,4.5-10,9c-12.14,16.05-28.02,29.14-40,45-29.2,38.64-64.29,72.97-93,112-62.11,84.44-126.105,168.09-183,258-31.911,50.43-60.771,102.85-92,154-16.069,26.32-28.126,54.94-44,81-9.59,15.74-15.486,32.62-24,49-22.291,42.88-41.964,87.1-62,133-79.461,182.05-136.28,383.54-194,589q-7.5,39.495-15,79l-2,20c-4.037,16.69-3.679,35.12-8,53-8.392,34.74-12.986,71.85-21,105-6.227,25.76,3.26,53.25-3,79-20.87,85.86-28,189.79-28,296,0,92.46,10.254,203.43-19,271-20.614,47.62-60.357,77.27-109,97-11.055,4.48-21.6,4.76-34,8-22.373,5.84-62.942,9.12-89,3-18.575-4.36-37.507-7.22-54-14-47.448-19.51-82.226-46.74-102-94-8.854-21.16-11.381-45.6-17-70q-2.5-30.99-5-62v-31c-1.852-8.66-1-21.67-1-32V3421c4.533-20.68,4-44.82,4-70v-32c5.578-24.74,4.328-54.09,10-80,2.673-12.21.583-24.95,3-36,2.812-12.86.454-26.38,3-38q2-25.995,4-52c7.711-33.77,8.58-67.26,16-101q3-38.49,6-77c6.494-25.17,10.411-54.33,17-81,4.135-16.73,4.223-34.27,8-50,6.36-26.49,5.862-51.77,13-77,17.294-61.13,33.412-121.74,53-181,8.369-25.32,12.606-49.82,21-75,13.966-41.89,25.577-86.96,42-127,5.569-13.58,7.467-26.56,13-40,20.727-50.34,38.317-102.05,60-152,23.68-54.55,48.062-108.7,72-163,11.546-26.19,27.562-52.02,39-78,10.574-24.02,21.8-47.34,35-69,7.3-11.99,10.742-25.05,18-37,20.29-33.4,36.45-69.48,57-103,58.2-94.92,115.056-189.22,178-279,46.619-66.49,98.756-128.39,147-193,22.679-30.37,51.088-56.64,74-87,4.1-5.43,10.91-9.59,15-15,21.451-28.37,49.644-50.74,71-79,7.168-9.49,17.636-16.26,25-26q12.5-12,25-24c13.12-13.123,25.07-27.715,40-39q10.005-10.5,20-21c16.28-16.13,33.67-33.146,52-47,10.46-7.9,18.53-20.083,29-28,34.64-26.194,64.28-59.038,99-85,31.75-23.744,61.16-50.592,93-74,51.64-37.958,103.39-76.039,156-113,54.54-38.321,111.95-71.091,169-107,181.08-113.969,381.58-207.8,590-294,38.72-16.015,80.5-26.75,121-40,13.61-4.453,26.23-5.519,40-10,34.22-11.135,72.64-18.057,108-28,15.44-4.341,29.53-4.633,45-9,32.47-9.168,67.49-12.586,101-22,24.79-6.964,51.27-9.757,77-17,37.9-10.67,77.93-18.336,116-28,36.98-9.386,83.6-3.554,122-12l29-2c11.18-2.579,24.46-4.528,35-7,13.76-3.226,30.9.854,44-2,14.93-3.252,31.24,1,45-2,14.98-3.261,31.27.989,45-2l46-1c13.9-3,32.7-1.688,47-3h21c17.61-3.794,51.68-3.755,69,0,13.32,2.887,28.49-.656,41,2,3.15,0.668,7.4-.655,9-1l25-1c4.92-1.233,10.95-4.725,15-6h93l108,6c23.02,5.1,48.43,1.618,72,7,14.2,3.241,29.98,2.372,45,6,25.4,6.136,52.17,9.406,77,15l95,7c25.21,6.382,54.37,10.417,81,17,19.92,4.924,40.53,5.3,59,10,18.15,4.62,34.83,4.451,52,10,99.73,32.237,203.09,58.5,301,91,26.03,8.642,51.25,15.809,76,25,8.24,3.061,15.88,3.66,24,7,46.46,19.1,95.16,33.107,141,53,36.14,15.685,72.75,33.478,108,49,49.08,21.615,95.43,48.619,144,70,38.45,16.927,77.18,34.794,112,56,25.45,15.5,52.13,26.344,77,42,67.95,42.773,132.89,89.139,198,135,71.69,50.493,137.16,108.854,207,161,20.42,15.243,37.72,35.693,58,51,18.3,13.818,33.75,30.211,52,44q4.005,4.5,8,9c17.73,13.406,31.81,32,49,45,30.05,22.724,55.5,52.5,82,79,26.63,26.63,57.19,51.81,80,82q7.005,6.495,14,13c8.83,9.92,17.97,19.37,26,30q4.995,4.5,10,9c16.68,22.05,38.48,40.12,55,62,15.58,20.63,34.66,38.49,50,59,36.45,48.75,77.82,94.16,113,144,54.12,76.67,108.33,153.69,159,234,90.7,143.75,168.33,299.84,239,463,33.48,77.31,58.35,158.18,86,241,32.59,97.62,62.44,197.37,91,299,7.94,28.25,8.5,56.78,16,86,3.98,15.53,4.75,32.46,9,49,6.89,26.84,12.6,56.17,19,82v41c15.26,63.99,17.8,142.28,33,207v67c22.11,89.63,17.04,206.85,17,316V5328c0,126.89,4.99,245.67,5,373,0,19.9,2.89,45.02-1,63-3.54,16.32,1.21,34.22-2,49v17c-1.75,7.89-1.31,19.3-3,27v11c-3.75,16.71-1.9,34.84-6,52-6.02,25.21-7.19,51.99-15,76-10.7,32.91-17.96,67.27-31,99-20.41,49.67-39.26,99.46-63,145-8.45,16.21-14.58,32.52-24,48-40.47,66.53-81.27,130.34-127,191q-4.995,4.5-10,9c-10.38,10.37-20.05,20.05-32,29-26.78,20.05-52.21,42.83-79,63-23.71,17.85-43.91,41.27-68,59-34.68,25.51-74.76,49.87-116,68-37.5,16.49-76.79,31.68-117,45-28.39,9.41-57.79,15.89-86,25q-82.995,19.995-166,40c-14.3,3.63-27.86,1.64-43,5-7.06,1.56-17.74,1.42-25,3h-20c-12.27,2.65-29.97,1-44,1H3301c-15.27,0-34.53,1.92-48-1h-19c-17.49,0-36.51,1.37-52-2q-15.495-.495-31-1c-21.77-4.84-46.73-3.99-67-9-19.58-4.84-36.92-5.07-55-11-213.88-70.13-344.46-193.21-427-395-8.87-21.69-12.9-45.98-19-70q-2.505-18-5-36c-7.07-28.99-9.47-58.56-16-88v-15c-4.69-22.74,1.27-68.79,6-88,4.41-17.93,4.18-33.99,9-51,16.2-57.23,32.19-114.32,60-160,11.77-19.34,20.14-39.21,32-58,16.88-26.74,37.21-51.07,56-76q4.005-3.495,8-7c8.96-11.85,19.13-23.04,31-32,6.9-5.22,12.04-13.75,19-19,18.82-14.19,36.96-30.32,57-43,63.19-39.98,135.31-70.31,213-96,26.26-8.68,53.63-15.96,80-23h76c44.39-10.38,98.77-10,154-10,14.39,0,30.11.73,43,1,11.32,0.23,25.36-1.1,35,1h142c20.72-4.68,57.66-5.85,80-1,6.51,1.41,15.73-.14,21,1h16a252.737,252.737,0,0,0,60-7c12.4-2.96,26.08-1.39,38-4h17c21.22-4.52,48.1-2,72-2,63.67-.01,128.99.55,182,13h50a1293.115,1293.115,0,0,1,201,69c28.06,12.31,54.88,23.6,80,39,22.53,13.81,44.89,28.51,66,44,12.48,9.16,23.51,20.57,36,30q6.495,7.005,13,14c11.13,11.14,22.39,21.25,32,34,12.2,16.19,27.16,31.13,39,48,27.77,39.55,49.59,83.08,70,130,17.48,40.18,28.16,81.75,41,128,5.32,19.17,4.45,37.58,9,58,3.22,14.46,7.31,46.66,4,62v20c-4.57,20.59-6.17,41.44-11,62-3.6,15.32-2.46,29.11-7,43C4684.68,6340.42,4671.47,6356.08,4668,6383ZM1662,2558h382c73.97-.01,156.78-5.78,214,13,136.81,44.89,225.08,139.29,278,268,10.36,25.2,12.28,54.73,19,84,2.32,10.1.97,20.81,3,30q1.005,22.995,2,46v16c2.65,12.27,1,29.97,1,44,0,13.7,1.63,31.06-1,43v19c0,17.29,1.43,40.44-2,56v27q-1.005,27.495-2,55v35c-1.8,8.35-1,20.99-1,31v104c6.38,27.17,8,59.01,8,93,0,13.7,1.63,31.06-1,43-3.84,17.46,1.75,40.98-2,58v83q1.005,94.485,2,189,0.495,71.49,1,143c1.95,8.95,1,22.37,1,33v62q1.005,84.495,2,169v78c4.09,18.88,1,45.17,1,66q0.495,58.995,1,118,1.005,53.49,2,107c0,18.08,1.53,37.94-2,54v15l-6,45c-48.46,180.63-170.84,275.89-350,326-19.89,5.56-41.99,4.36-63,9h-15c-16.58,3.59-68.69,4.81-86,1q-79.995-1.995-160-4l-130,3c-14.96,3.15-53.08,3.27-68,0h-24c-13.67-3.05-29.01-.7-43-4-95.46-22.51-190.99-40.34-272-76-57.86-25.47-108.77-60.58-157-96-15.72-11.54-29.33-26.16-45-38q-6-6.495-12-13a183.87,183.87,0,0,1-35-35c-5.78-7.65-15.2-13.33-21-21-9.83-13-20.23-24.8-30-38-15.59-21.07-33.76-41.5-48-64-54.621-86.31-94.774-176.03-126-287-8.588-30.52-8.753-63.92-16-96q-1-15-2-30c-5-22.65-.846-50.57-6-74v-24c-1.906-8.76,1.175-21.99-1-32-3.416-15.72-.639-37.43-1-55-0.967-47.09-1-98.27-1-147V3806c-14.925-65.66-4-155.41-4-231q-0.5-50.49-1-101v-44c1.518-6.85-.795-17.91,1-26,5.819-26.21,1.388-56.86,7-82q0.5-9.495,1-19,5.5-36.99,11-74c15.242-59.03,25.72-115.9,48-167,25.443-58.35,60.346-107.85,96-156,12.44-16.8,28.32-31.22,41-48q6.495-6,13-12a235.643,235.643,0,0,1,44-44q6-6.495,12-13c9.41-7.12,17.53-14.87,27-22,22.03-16.58,42.2-36.9,65-53,50.88-35.92,105.01-68.21,166-94,18.75-7.93,37.69-11.33,58-18,45.36-14.9,97.19-24.54,144-37C1604.65,2558.18,1645.4,2573.86,1662,2558ZM5118,5121v13H4842c-59.62.01-124.09,2.67-172-9q-36-4.005-72-8c-143.63-46.56-249.51-137.9-305-273-24.21-58.95-18-157.19-18-239V3269c0-15.54,2.04-35.27-1-49-2.21-10,.94-23.24-1-32-2.07-9.36.8-21.88-1-30q-0.495-36.99-1-74c-2.92-13.73-3.01-59.33,0-73,1.99-9.05-.72-21.19,1-29q1.005-21,2-42c6.69-29.49,6.62-59.7,17-85,62.15-151.57,160.37-237.53,331-280h20c18.87-4.11,45.18-1,66-1h19c18.87-4.11,45.18-1,66-1h19c17.97-3.91,43.11-1,63-1q54.495-.495,109-1c30.19-.02,63.29-1,95-1,14.32,0,32.46-1.76,45,1,12.23,2.69,28.01-1.42,39,1h22c12.63,2.82,28.81,1.27,41,4q9.495,0.495,19,1,23.505,3.495,47,7c55.7,14.43,108.92,27.7,158,49,223.51,96.98,367.18,245.26,464,469,17.51,40.46,28.43,84,41,129,8.53,30.54,7.77,63.92,15,96,2.5,11.1.75,22.85,3,33q1.005,24,2,48c3.05,14,2,31.25,2,47v17c3.64,16.77,1,40.34,1,59,0,14.31,1.77,32.47-1,45q-0.495,49.5-1,99c-2.47,11.31,1.73,27.45-1,40-2.74,12.58,2.01,30.17-1,44-2.21,10.15-1,25.14-1,37q-0.495,25.5-1,51c-0.01,222.03,25.9,484.69-33,661-87.54,262.01-259.34,449-507,551-20.7,8.52-41.78,11.78-64,19-45.89,14.9-96.13,23.88-145,35q-25.995.495-52,1c-9.09,2-21.45-.24-31,2Q5129.005,5118.505,5118,5121ZM2121,4687V2988l-264-3c-16.15,0-36.69-2.19-51,1-10.31,2.3-23.93-1.02-33,1h-19c-10.58.59-25.09,0.78-35,3l-44,3c-30.3,6.99-62.1,6.77-91,15-102.69,29.23-178.47,64.75-233,142-37.9,53.7-55.72,122.92-76,195l-6,39q-0.495,16.5-1,33c-2.16,9.88-2.21,29.13,0,39,2.16,9.67-.89,22.56,1,31q0.495,22.005,1,44c1.44,6.54-.71,17.22,1,25,1.96,8.94,1,22.38,1,33v506c0,21.38-3.32,48.6,1,68,3,13.48-1.73,30.75,1,43v19c0.15,12.03.51,27.88,3,39v13c3.75,16.58,3.22,36.24,7,52,5.15,21.47,4.59,41.26,11,61,11.26,34.64,21.52,68.49,39,97,12.15,19.82,27.29,36.86,41,55,4.83,6.39,12.54,12.12,19,17,5.04,3.8,8.93,10.19,14,14,8.58,6.44,17.09,11.75,26,18,65,45.63,146.12,73.71,235,96h452Zm2560,0h320q41.49,0.495,83,1c11.54,0,26.17,1.18,36-1,14.43-3.2,27.6.28,41-3,67.62-16.54,125.67-37.64,177-70,14.04-8.85,26.91-20.3,40-30,14.1-10.45,25.8-21.79,38-34q6-5.505,12-11c10.29-13.6,22.2-26.04,32-40,25.81-36.76,45.34-79.31,59-128,3.78-13.49,2.67-25.59,6-40,8.9-38.54,7-86.58,7-132q-0.495-24.99-1-50c0-11.54,1.18-26.17-1-36V3641c1.73-31.39,1-66.96,1-100,0-16.47,2.23-37.37-1-52v-32q-3-41.49-6-83c-6.21-27.04-5.67-55.09-13-81-15.56-55.04-32.17-103.07-61-144-47.89-67.98-117.07-108.52-205-137-26.63-8.62-55.6-10.24-84-17-11.05-2.63-22.64-1.66-33-4-15.62-3.52-34.08.48-50-3-13.56-2.96-29.96,1.28-45-2-20.68-4.51-57.48-1-81-1-88.03,0-171.16,2.95-259,3v2c-5.84,7.67-3.54,20.88-6,32-3.75,16.93-2.98,41.49-2,59v35c2.9,13.47-1.14,29.4,2,44,4.61,21.44,2,51.61,2,76v461c-1.87,6.16-4.24,14.87-6,23-2.28,10.54.03,34.8,2,44v271C4685,4252.13,4681.06,4467.58,4681,4687ZM3180,5971c-7.01,8.24-21.11,3.05-34,6-10.72,2.45-21.29,4.91-31,9-52.36,22.03-92.41,55.01-114,108-32.99,80.99-6.65,208.34,46,248,86.98,65.53,233.26,49,379,49h473c86.58,0,184.37,9.56,248-18,54.49-23.6,92.06-78.08,110-138,7.14-23.83,5.96-59.32,0-83-14.86-59.01-30.74-108.8-75-138-75.18-49.61-210.16-43-334-43H3180Z"/>
</svg>
