<svg xmlns="http://www.w3.org/2000/svg" width="769.268" height="615.715" viewBox="0 0 7685 6151">
  <defs>
    <style>
      .cls-1 {
        fill: #cecece;
        fill-rule: evenodd;
      }
    </style>
  </defs>
  <path class="cls-1" d="M7305,4613c98.09-.87,206.59-6.23,278,23,25.24,10.33,50.94,20.73,66,41,41.64,56.03,50.48,178.55,10,244-6.49,10.49-12.36,21.82-22,29-29.17,21.71-62.47,32.58-104,43-19.98,5.02-42.37,2.55-63,7q-40.995.495-82,1c-14.08,3.03-34.11,1-50,1H6926v4h-4c-1.74,5.12-1.08,14.25-1,21q-3.495,40.995-7,82c-4.44,19.3-3.16,40.16-8,60-9.69,39.72-12.4,80.97-24,119-15.54,50.92-27.48,101.92-47,149-39.96,96.38-87.02,181.53-143,261-12.61,17.9-28.98,33.64-42,51-8.97,11.95-19.04,22.14-28,34q-7.005,6.495-14,13a206.959,206.959,0,0,1-39,39c-11.55,8.73-20.38,22.22-32,31-30.59,23.12-59.38,48.78-91,71-32.49,22.83-67.7,42.11-102,63-4.52,2.75-9.47,3.25-14,6-37.13,22.55-79.01,36.66-121,55-13.42,5.86-26.82,14.58-39,22-17.07,10.4-38.91,17.34-59,24-29.9,9.91-61.71,14.64-93,23q-13.5,1.995-27,4c-14.84,3.67-32.74,4.49-48,8q-8.505.495-17,1c-35.85,7.98-85.02,7.99-127,8-29.24.01-63.94,3.69-90-2h-16q-39.495-4.005-79-8-39.99-7.005-80-14c-21.76-6.13-44.82-12.33-66-18q-36-5.505-72-11c-40.06-11.88-78.37-32.87-115-49-47.87-21.08-92.54-45.57-135-72-19.88-12.37-40.21-22.52-59-36-17.03-12.22-31.24-30.24-46-45q-4.995-5.505-10-11a1026.794,1026.794,0,0,1-110-96c-101.68-101.78-178.62-229.8-238-374-14.1-34.25-21.53-71.42-32-109q-10.995-64.5-22-129c-5.85-21.9-17.1-59.45-11-87v-19c0.01-16.4,1.12-33.02-3-47-2.09-7.1-2.62-16.35-9-19-7.84-7.04-20.21-3.26-33-6-20.42-4.37-48.77,1.72-71,2-94.04,1.2-192.31,1-288,1H3067v4h-4c0.44,28.77,2.48,64.14-3,89-2.59,11.73-.68,23.69-3,34-4.11,18.23-2.97,37.28-7,54-4.67,19.4-3.75,37.39-9,56-17.33,61.42-29.09,121.77-52,177-79.25,191.08-186.04,350.92-341,466-20.34,15.1-32.75,39.9-53,55-16.18,12.07-36.75,22.54-56,31-9.46,4.16-18.41,6.76-27,12-23.51,14.35-41.64,34.7-65,49-6.86,4.19-14.37,5.67-22,9-38.98,17.02-84.7,27.31-125,44-47.67,19.75-98.25,30-152,45q-37.995,6.495-76,13-37.5,4.005-75,8-15,.495-30,1c-19.75,4.22-44.65,2-67,2-12.78,0-28.96,1.42-40-1h-19c-11.7-.65-31.34-0.38-43-3q-36.99-4.995-74-10c-30.14-7.76-60.83-14.1-89-22-28.8-8.08-63.55-4.17-90-14-46.7-17.36-91.77-40.51-136-60-65.91-29.04-134.76-66.49-190-107-28.13-20.63-52.47-48.47-77-73q-10.995-11.505-22-23c-12.95-9.8-23.03-22.2-36-32q-7.005-7.5-14-15c-10.12-7.65-17.14-18.55-27-26-11.92-9.01-23-21.09-32-33-5.91-7.83-15.073-14.11-21-22-13.173-17.55-27.252-35.43-39-54-53.215-84.1-98.68-178.61-138-276-2.425-6.01-1.259-12.04-3-19-3.762-15.05-5.257-32.95-9-48q-0.5-6-1-12c-9.375-31.95-21.119-65.93-30-99q-3.5-60-7-120c-11.45-51.53-9-118.03-9-181V3463h1v-1c9.587-.72,21.133-2.87,31-5h31q37.5,1.005,75,2h246v1h1c0.9,7.15,3.41,14.44,5,21,2.22,9.14,1.12,19.28,3,28,2.41,11.22,1.12,52.12-1,62q-0.495,19.5-1,39c-5.12,23.87-3,59.52-3,87v428h9c9.3-13.52,26.86-21.2,41-30,20.65-12.84,40.1-26.72,59-41q4.995-5.505,10-11c13.19-10,24.76-22.12,39-31,17.97-11.21,36.89-19.07,56-29,79.84-41.5,169.52-70.08,265-97,43.7-12.32,90.11-15.13,136-26,16.43-3.89,32.16-1.27,49-5,14.48-3.21,30.94-.55,47-4,23.77-5.1,55.66-2.99,83-3,39.32-.01,85.66-1.49,119,6,14.07,3.16,28.39,2.01,41,5,14.92,3.53,28.53,2.25,43,6,53.15,13.76,105.59,22.5,153,42,70.53,29,142.08,55.16,204,93,36.41,22.25,72.54,44.73,107,69,12.4,8.74,23.88,20.02,36,29,31.51,23.37,59.59,49.59,87,77q15.495,15,31,30c18.21,24.07,41.09,44.65,59,69,19.06,25.91,36.29,52.29,55,79,22.77,32.51,49,62.65,70,97,14.9,24.38,19.59,56.22,33,82,13.21,25.39,34.61,47.57,39,81H4435c60.15,0,125.28,7.79,177-4v-1c-7.12-10.22-5.03-31.44-8-45v-18c-2.51-11.67-1-28.58-1-42,0-12.79-1.41-28.95,1-40,2.12-9.69-.85-22.55,1-31q0.495-24.99,1-50c4.29-19.81,2-47.51,2-70V916c0.33-71.394,6.99-154.268-8-215V659c-2.72-9.675-9.11-20.084-13-29-13.93-31.941-29.61-59.471-47-87-9.58-15.166-25.61-44.03-39-54-10.98-8.176-24.06-12.584-36-20-16.14-10.03-31.43-22.88-48-33-28.05-17.128-61.76-26.245-97-36-15.15-4.193-29.76-2.389-46-6-11.5-2.556-27.03-1.383-39-4h-25c-12.57-2.716-30.66-1-45-1H1953c-18.96,0-42.95,2.728-60-1l-211-4c-107.15-.011-213.57-0.968-295,26-81.22,26.9-142.01,93.321-184,160-17.02,27.028-34.88,57.478-45,91q-3,21.5-6,43c-4.53,19.2-8.61,41.68-9,63l12,4v379H2637c16.83,0,38.01,2.22,53-1q48.495-.495,97-1c68.57,0,145.45,4.26,188,30,10.82,6.55,20.31,14.72,30,22,5.78,4.35,12.71,9.28,17,15,10.44,13.92,21.75,29.34,29,46,3.12,7.18,3.95,13.46,7,21,13.74,33.96,21.39,91.99,8,133-41.75,127.9-181.81,124-349,124H289c-68.623,0-149.812,6.65-193-20-37.5-23.14-66.451-56.92-84-100-4.66-11.44-7.033-24.74-10-37-5.3-21.9-3.094-57.76,2-77,3.126-11.81,3.736-21.56,8-32,17.516-42.88,45.671-76.95,83-100,48.218-29.78,138.458-23,215-23H762v-1h1c0.552-4.09,3.867-7.98,3-12-0.43-2-3.35-6.52-4-9-2.038-7.79-3-32.85-1-42,3.66-16.76,1-40.35,1-59V908c0-15.862-2.086-35.962,1-50,2.408-10.954-1.137-25.286,1-35V803q1.5-24,3-48l7-67c3.436-14.558,3.068-30.765,7-46,10.059-38.981,14.817-78.446,27-115,22.814-68.454,50.126-133.183,88-187,14.012-19.91,36.617-32.7,51-52,48.592-65.207,106.34-119.989,176-164,76.25-48.178,167.81-84.868,265-111h46C1488.38-.468,1557.5,0,1625,0H4124c74.13-.007,150.45-1.592,209,13h50c24.82,6.9,51.76,17.41,75,27,17.48,7.216,33.97,11.567,51,19,54.28,23.691,108.59,50.5,155,83,22.64,15.857,44.01,33.466,66,50,10.65,8.01,19.2,18.84,30,27,8.4,6.347,16.6,16.534,23,25l12,11c11.4,15.06,23.7,28.6,35,44,16.15,22.009,33.14,44.445,48,68,12.31,19.514,21.14,40.1,32,61,29.73,57.2,55.82,123.466,74,191v46c15.68,63.176,17,140.023,17,219,0,88.941-2.35,175.64-1,262,1,0.33,2,.67,3,1,13.72,10.61,60.88,3.01,82,3h219c21.19,0,44.41-.33,64-1,14.18-.48,31.56,1.7,44-1,13.19-2.87,30.05,1.6,42-1q46.995-.495,94-1c21.4-4.56,58.77-1,83-1,19.9,0,45.02-2.89,63,1h33c6.22,1.37,16.54-.64,24,1,28.17,6.21,61.83,1.91,89,8,19.73,4.42,38.11,2.16,57,7,50.5,12.93,99.79,21.18,139,45,34.11,20.72,66.57,41.91,98,65,16.48,12.1,30.6,27.6,47,40q4.995,5.505,10,11c10.2,7.72,18.07,17.07,27,26s18.29,16.79,26,27q7.005,6.495,14,13c18.08,23.92,41.07,44.1,59,68,42.83,57.1,87.89,112.74,131,170,4.95,6.58,13.06,11.47,18,18,23.56,31.14,57.51,53.79,81,85,138.2,183.57,299.93,342.64,436,528,29.42,40.07,67.14,73.47,97,113,10.12,13.39,23.68,24.33,34,38,11.17,14.79,26.83,27.12,38,42,24.46,32.58,50.93,64.1,73,99,8.64,13.66,14.46,27.93,23,42,16.4,27.02,35.05,67.9,44,101v41c13.32,56.76,13,127.72,13,198V4613ZM6854,2688v-4c-9.62-3.23-17.32-13.47-23-21-16.21-21.51-33.63-43.32-50-65q-33-33.495-66-67-8.505-7.995-17-16c-8.86-11.72-20.35-21.33-29-33-23.49-31.7-46.45-63.79-70-95-6.78-8.98-17.21-16.02-24-25-21.33-28.22-47.68-51.77-69-80-4.37-5.79-11.62-10.21-16-16-16.78-22.19-37.25-40.8-54-63-4.1-5.43-10.91-9.59-15-15-11.6-15.35-26.59-27.9-38-43-43.75-57.89-99.27-106.08-143-164-4.37-5.79-11.63-10.21-16-16-11.68-15.45-25.33-28.55-37-44-4.09-5.41-10.9-9.58-15-15-14.36-19-31.65-34.99-46-54-4.1-5.43-10.91-9.59-15-15-28.43-37.61-61.96-71.81-90-110-42.74-58.21-97.58-127.36-159-166-36.06-22.69-85.1-26-145-26-21.28,0-47.25-2.03-66,2h-19c-10.7.14-26.6,0.43-37,2H5001c-0.85,2.45-1.04,6.18-1,10-2.73,4.41-1,16.61-1,23q0.495,30,1,60c0.02,72.67,1,148.76,1,223,0,278.6-1.42,563.82-1,835a15.607,15.607,0,0,0,5,1c7.34-5.15,18.56-2.72,29-5,20.12-4.39,63.52-4.4,84,0h20c5.9,1.27,15.85-.54,23,1,8.96,1.93,22.36,1,33,1H6854ZM570,1921H3154c71.49,0,146.93-3.71,197,18,28.98,12.56,48.74,37.4,66,62,16.95,24.16,30.58,47.35,40,80,2.5,8.65,6.76,23.62,4,36-17.36,77.79-44.85,148.43-111,177-51.68,22.32-135.54,16-208,16H697c-99.753,0-184.25,3.62-243-40-33.014-24.51-52.471-65.95-64-112-18-71.91,15.213-161.56,54-190,19.391-14.22,42.33-28.88,68-36C530.6,1926.84,557.866,1932.45,570,1921Zm2072,761c143.55-1.55,289.24.13,371,61,14.59,10.86,23.2,28.17,33,44,11.9,19.23,22.23,40.27,29,65,7.82,28.54-2.17,60.97-9,82-20.67,63.63-49.39,108.76-109,133-50.43,20.51-150.9,9-217,9H323c-12.278,2.61-29.466-1.87-43,1-15.616,3.32-37.538,1-55,1-49.936,0-93.485-2.93-128-18-41.78-18.24-71.223-58.69-86-104-4.628-14.19-5.655-29.57-9-45-1.978-9.12-1.755-26.88,0-35,2.744-12.7.107-23.52,3-35a335.238,335.238,0,0,1,17-51c20.735-47.84,54.527-73.5,106-90,12.631-4.05,27.175-1.61,41-5,6.16-1.51,12.048-5.43,17-7H2425c10.33,0,23.34.86,32-1,13.2-2.84,30.05,1.58,42-1h26c11.11-.09,28.37.29,39-2,10.97-2.37,25.28,1.1,35-1C2609.88,2680.65,2634.19,2686.85,2642,2682ZM6859,4613h57V3080c-12.02-1.5-26.16-4.22-39-7h-21c-10.94-2.35-37.51-1.46-49,1q-20.505.495-41,1c-8.36,1.79-20.98,1-31,1H5001c-1.84,2.79-3.19,2.83-4,7,7.03,9.24,5.25,30.26,8,43v18c3,14,3.01,41.01,0,55-3.58,16.64,1.27,34.79-2,50q-0.495,22.005-1,44c-4.06,18.91-1,45.15-1,66v547c0,53.21,3.74,110.6-1,162-1.3,14.07-3.79,52.72,2,61,3.15-3.88,7.83-5.07,12-8,11.32-7.96,21.82-17.59,33-26,4.69-3.52,8.34-9.47,13-13,20.16-15.26,37.86-33.89,59-48,27.51-18.36,62.22-27.82,92-44,23.47-12.75,42.1-33.06,67-44,89.92-39.52,199.61-61.5,302-87h46c41.82-9.82,90.44-13.99,142-14,23.96-.01,49.96-1.63,71,3h13q29.49,3.495,59,7c16.63,4.05,34.27,5.24,51,10q27.99,8.505,56,17c32.69,9.17,70.45,6.79,101,17,28.73,9.6,52.61,26.47,79,38,33.92,14.82,75.05,18.8,105,37,46.03,27.97,91.94,53.67,135,84,20.25,14.27,38.39,32.28,58,47,15.17,11.38,27.97,24.64,43,36q7.5,7.995,15,16c17.94,13.56,35.45,32.07,49,50,10.45,13.83,25.51,25.03,36,39,24.38,32.49,49.09,63.57,72,98,24.07,36.18,53.12,68.58,76,106,14.16,23.16,18.78,54.42,30,80C6829.32,4558.1,6854.23,4577.88,6859,4613ZM1879,4235c-16.97,15.09-54.7,3.74-81,10-57.41,13.66-120.7,23-171,45-33.05,14.46-64.7,33.48-94,52-88.95,56.23-167.35,122.61-228,207-29.52,41.07-60.44,84.06-82,133-10.99,24.94-20.16,50.79-29,78l-18,81c-2.54,9.87-1.48,18.12-4,28-8.62,33.82-10.97,68.53-19,104v18c-3.63,17.13-.58,50.37,3,66,3.78,16.51,1.94,31.39,6,47,11.28,43.41,20.62,85.94,36,124,5.14,12.72,4.1,26.62,8,41a320.064,320.064,0,0,0,16,46c23.53,53.5,58.36,98.61,91,143,12.29,16.71,25.61,31.59,38,48,5.24,6.93,13.78,12.1,19,19,12.31,16.27,33.73,37.7,50,50,6.16,4.65,10.81,12.32,17,17,15.88,12,30.73,25.56,47,37,28.11,19.76,64.66,29,96,46,55.64,30.19,119.47,58.88,187,76l71,3c19.24,4.27,37.5,6.29,58,11,7.68,1.76,20.97,5.31,31,3,70.01-16.13,148.72-17.09,214-37,14.64-4.47,28.27-5.44,42-11,62.65-25.36,116.73-54.88,168-91,18.91-13.32,36.44-29.04,55-43,4.69-3.52,8.34-9.48,13-13,16.21-12.25,29.79-26.79,44-41,14.22-14.23,28.75-27.77,41-44,8.91-11.81,21.17-22,30-34,31.04-42.18,62.75-86.49,85-137,25.98-59,39.02-127.66,58-195,5.61-19.91,4.28-42.08,9-63v-17c3.52-16.49,2.46-52.5-1-68q-0.495-11.505-1-23c-4.18-18.21-3.27-37.76-8-56q-6.495-29.49-13-59c-10.09-30.92-18.99-62.7-31-91-5.82-13.71-9.09-26.54-15-40-24.38-55.52-52.79-109.63-86-157-105.23-150.1-259.77-243.52-459-300-13.67-3.87-26.34-2.63-41-6-13.01-2.99-28.65-.84-43-4-13.47-2.97-29.97,1.3-45-2C1924.74,4231.99,1899.2,4235.04,1879,4235Zm3846,0c-17.32,14.9-54.56,3.69-81,10-54.01,12.89-116.07,21.66-164,42-62.31,26.44-116.81,63.38-168,101-103.54,76.11-194.32,182.51-249,307-13.79,31.41-22,66.32-32,102-5.61,20.03-6.99,41.49-12,61-2.54,9.87-1.5,18.12-4,28-4.98,19.68-8.17,41.62-13,61-2.28,9.14-1.07,19.4-3,28-2.72,12.11-.22,48.08,2,58,3.14,14,.67,26.76,4,40,7.76,30.87,12.71,61.56,21,91,3.21,11.39,2.76,21.55,6,33,9.45,33.47,14.87,68.93,28,99,11.8,27.02,31.16,48.87,46,73,11.92,19.38,21.06,39.09,33,58,38.76,61.39,98.23,125.52,156,168,30.57,22.48,63.11,42.92,96,63,12.92,7.89,26.94,12.07,40,20,34.94,21.22,74.88,33.56,115,50,20.57,8.43,44.49,17.32,67,23l71,3q25.5,5.505,51,11,7.005,0.495,14,1c5.88,1.29,16.07,3.85,24,2,23.12-5.4,48.8-5.18,73-11,17.21-4.14,35.93-3.57,54-8,49.46-12.12,99.86-16.19,143-34,66.85-27.59,123.65-64.11,178-104,15.85-11.64,29.45-27.24,45-39,8.78-6.63,15.51-15.58,24-22,20.62-15.6,42.38-39.31,58-60,9.19-12.18,21.88-22.6,31-35,30.82-41.88,62.95-85.9,85-136,26.86-61.03,40.5-132.14,60-202,5.25-18.79,3.62-39.47,8-59v-19c3.14-14.84,2.13-45.9-1-60v-14q-3.495-27.99-7-56c-4.62-18.37-5.76-37.6-11-56-8.44-29.64-17.04-59.74-27-87-4.85-13.28-2.94-29.15-7-44-5.29-19.33-14.14-37.14-22-55-19.24-43.7-46.99-84.18-74-121-6.16-8.4-14.8-15.73-21-24-29.47-39.27-67.49-74.76-107-104-22.06-16.33-43.4-35.06-67-50-79.47-50.3-169.06-91.46-270-120-13.72-3.88-26.22-2.62-41-6-8.42-1.93-20.28-2.05-29-4h-14c-13.11-2.87-29.29,1.21-44-2C5771.42,4231.94,5745.52,4235.05,5725,4235Z"/>
</svg>
